<svg width="46" height="49" viewBox="0 0 46 49" fill="none" xmlns="http://www.w3.org/2000/svg">
<rect x="0.797302" y="0.0739746" width="44.672" height="48.6502" fill="#323238"/>
<path d="M34.4374 24.4732C34.4374 17.7144 29.4075 12.2366 23.2014 12.2366C16.9952 12.2366 11.9653 17.7144 11.9653 24.4732C11.9653 30.582 16.0735 35.644 21.4457 36.5617V28.0104H18.5928V24.4732H21.4457V21.7773C21.4457 18.711 23.1224 17.0165 25.69 17.0165C26.9189 17.0165 28.2049 17.2555 28.2049 17.2555V20.2669H26.7872C25.3915 20.2669 24.957 21.2109 24.957 22.1789V24.4732H28.0732L27.5751 28.0104H24.957V36.5617C30.3292 35.644 34.4374 30.582 34.4374 24.4732Z" fill="white"/>
</svg>
