<svg width="45" height="49" viewBox="0 0 45 49" fill="none" xmlns="http://www.w3.org/2000/svg">
<rect x="0.125305" y="0.0739746" width="44.672" height="48.6502" fill="#323238"/>
<g clip-path="url(#clip0_61385:216)">
<path d="M21.2738 36.5615C20.2436 36.5615 19.0402 36.5554 17.8527 36.4814C16.1152 36.524 14.4324 35.8185 13.1696 34.5182C11.9753 33.1434 11.3275 31.311 11.3669 29.419C11.2933 27.9564 11.2933 26.4777 11.2933 25.0476C11.2933 24.8313 11.2933 24.6151 11.2933 24.3989C11.2933 24.1827 11.2933 23.9664 11.2933 23.7502C11.2933 22.3201 11.2933 20.8413 11.3669 19.3798C11.3278 17.4876 11.9755 15.6549 13.1696 14.2796C14.4324 12.9793 16.1152 12.2738 17.8527 12.3164C19.0439 12.2424 20.2436 12.2363 21.2738 12.2363H23.6498C24.68 12.2363 25.8834 12.2424 27.0719 12.3164C28.8091 12.2735 30.4917 12.9791 31.754 14.2796C32.9481 15.6549 33.5958 17.4876 33.5567 19.3798C33.6293 20.8413 33.6293 22.3201 33.6293 23.7512C33.6293 23.9675 33.6293 24.1837 33.6293 24.3999C33.6293 24.6161 33.6293 24.832 33.6293 25.0476C33.6293 26.4777 33.6293 27.9564 33.5558 29.42C33.5952 31.312 32.9473 33.1444 31.7531 34.5192C30.4908 35.8197 28.8082 36.5253 27.0709 36.4824C25.8787 36.5564 24.6791 36.5625 23.6489 36.5625L21.2738 36.5615Z" fill="white"/>
<path d="M27.6787 19.1168C27.8988 19.277 28.1575 19.3625 28.4222 19.3625L28.4232 19.3635C28.778 19.3629 29.1182 19.209 29.3689 18.9356C29.6197 18.6621 29.7605 18.2915 29.7605 17.905C29.7605 17.6167 29.682 17.3349 29.535 17.0953C29.3879 16.8556 29.1789 16.6688 28.9344 16.5585C28.6898 16.4481 28.4207 16.4193 28.1611 16.4755C27.9015 16.5318 27.6631 16.6706 27.4759 16.8744C27.2887 17.0782 27.1613 17.3379 27.1096 17.6207C27.058 17.9034 27.0845 18.1964 27.1858 18.4627C27.2871 18.7291 27.4586 18.9567 27.6787 19.1168Z" fill="#323238"/>
<path fill-rule="evenodd" clip-rule="evenodd" d="M22.4616 30.638C21.3285 30.6378 20.2209 30.2717 19.2789 29.586C18.3368 28.9002 17.6027 27.9257 17.1692 26.7856C16.7357 25.6455 16.6224 24.391 16.8435 23.1807C17.0647 21.9705 17.6104 20.8588 18.4117 19.9863C19.213 19.1138 20.2338 18.5197 21.3452 18.279C22.4565 18.0383 23.6084 18.162 24.6552 18.6342C25.702 19.1065 26.5967 19.9062 27.2262 20.9323C27.8557 21.9583 28.1917 23.1646 28.1917 24.3986C28.1902 26.0531 27.586 27.6395 26.5118 28.8094C25.4375 29.9794 23.9809 30.6364 22.4616 30.638ZM22.4615 20.3449C21.7253 20.3449 21.0055 20.5827 20.3933 21.0282C19.7811 21.4737 19.304 22.1068 19.0222 22.8476C18.7405 23.5884 18.6668 24.4036 18.8104 25.19C18.954 25.9765 19.3086 26.6989 19.8292 27.2659C20.3498 27.8328 21.0132 28.219 21.7353 28.3754C22.4574 28.5318 23.2059 28.4515 23.8861 28.1447C24.5664 27.8378 25.1478 27.3182 25.5568 26.6515C25.9659 25.9848 26.1842 25.201 26.1842 24.3991C26.1842 23.3239 25.792 22.2927 25.0939 21.5324C24.3957 20.7721 23.4489 20.3449 22.4615 20.3449Z" fill="#323238"/>
</g>
<defs>
<clipPath id="clip0_61385:216">
<rect width="22.336" height="24.3251" fill="white" transform="translate(11.2933 12.2363)"/>
</clipPath>
</defs>
</svg>
