<svg width="46" height="49" viewBox="0 0 46 49" fill="none" xmlns="http://www.w3.org/2000/svg">
<rect x="0.469299" y="0.0739746" width="44.672" height="48.6502" fill="#323238"/>
<g clip-path="url(#clip0_61385:205)">
<path d="M34.6107 17.1475C33.7502 17.5434 32.8382 17.8045 31.9043 17.9224C32.8892 17.3087 33.6261 16.3431 33.9777 15.2057C33.0533 15.7804 32.0406 16.1849 30.9842 16.4014C30.3388 15.6803 29.4996 15.1784 28.5761 14.9611C27.6525 14.7439 26.6875 14.8215 25.807 15.1837C24.9264 15.546 24.1712 16.176 23.6399 16.9918C23.1085 17.8075 22.8257 18.771 22.8283 19.7566C22.8265 20.1337 22.8674 20.5097 22.9501 20.8769C21.0739 20.7802 19.2384 20.2725 17.5634 19.3872C15.8885 18.5019 14.4118 17.2587 13.2297 15.739C12.6267 16.8209 12.4425 18.1015 12.7149 19.3198C12.9872 20.5381 13.6955 21.6025 14.6955 22.2962C13.944 22.2769 13.2084 22.0663 12.5531 21.6828V21.7438C12.5526 22.8783 12.9295 23.9779 13.6197 24.8559C14.3099 25.7339 15.2709 26.3361 16.3393 26.5601C15.9345 26.6744 15.5169 26.7323 15.0975 26.7323C14.8001 26.7329 14.5034 26.7024 14.2119 26.6414C14.5131 27.6171 15.0997 28.4704 15.8898 29.0818C16.68 29.6933 17.6339 30.0323 18.6183 30.0515C16.9481 31.4181 14.8843 32.159 12.7599 32.1548C12.384 32.1543 12.0085 32.1308 11.6353 32.0842C13.782 33.5382 16.2892 34.3094 18.8504 34.3034C20.617 34.3163 22.3686 33.9636 24.0031 33.2656C25.6377 32.5677 27.1226 31.5385 28.3717 30.2379C29.6207 28.9373 30.6089 27.3912 31.2789 25.6896C31.9488 23.988 32.2872 22.1647 32.2742 20.3257C32.2742 20.1129 32.2742 19.9 32.2592 19.692C33.182 18.9959 33.9782 18.1343 34.6107 17.1475V17.1475Z" fill="white"/>
</g>
<defs>
<clipPath id="clip0_61385:205">
<rect width="22.9742" height="19.46" fill="white" transform="translate(11.6373 14.8425)"/>
</clipPath>
</defs>
</svg>
