<svg width="46" height="49" viewBox="0 0 46 49" fill="none" xmlns="http://www.w3.org/2000/svg">
<rect x="0.453308" y="0.0737305" width="44.672" height="48.6502" fill="#323238"/>
<g clip-path="url(#clip0_61385:212)">
<path d="M34.446 19.1394C34.4875 18.097 34.161 17.0787 33.5383 16.3079C32.9157 15.537 32.0476 15.0766 31.1246 15.0276C28.6385 14.896 26.1031 14.8423 23.5136 14.8423H22.7062C20.1216 14.8423 17.5813 14.8932 15.0952 15.0276C14.172 15.0799 13.3047 15.5429 12.6831 16.3154C12.0614 17.0878 11.736 18.1069 11.7779 19.1495C11.6663 20.9571 11.6163 22.7573 11.6212 24.5621C11.6261 26.3669 11.6663 28.1699 11.7738 29.9793C11.73 31.0235 12.0544 32.0448 12.676 32.8196C13.2976 33.5944 14.1657 34.0596 15.0903 34.1133C17.702 34.2504 20.3817 34.3106 23.1058 34.306C25.8343 34.3159 28.5061 34.2517 31.1213 34.1133C32.046 34.0605 32.9145 33.5963 33.5368 32.8223C34.1591 32.0482 34.4845 31.0273 34.4419 29.983C34.5494 28.1736 34.5986 26.3697 34.5945 24.5612C34.6033 22.7539 34.5538 20.9466 34.446 19.1394ZM20.9077 29.5327V19.5757L27.4151 24.5519L20.9077 29.5327Z" fill="white"/>
</g>
<defs>
<clipPath id="clip0_61385:212">
<rect width="22.9742" height="19.46" fill="white" transform="translate(11.6213 14.8423)"/>
</clipPath>
</defs>
</svg>
